<svg width="415" height="88" viewBox="0 0 415 88" fill="none" xmlns="http://www.w3.org/2000/svg">
<path d="M18.8989 46.7032H40.4995L37.5087 49.9919H18.8989V46.7032Z" fill="#D64500"/>
<path fill-rule="evenodd" clip-rule="evenodd" d="M51.0719 61.9999L45.1095 46.4901L49.3719 40.8068L57.8366 61.9999H51.0719ZM38.9257 30.404L42.1307 38.7412L46.3662 33.2812L41.0954 20.0848C40.5763 18.7851 39.3179 17.9326 37.9183 17.9326C36.5187 17.9326 35.2603 18.7851 34.7411 20.0848L24.635 45.3878H31.2198C33.7436 38.835 36.2158 32.4184 36.9957 30.3944C37.1497 29.9947 37.5305 29.7398 37.9588 29.7398C38.3875 29.7398 38.7718 30.0039 38.9257 30.404ZM28.9402 51.3072C26.9489 56.4789 25.2665 60.8511 24.8273 61.9999H18L22.2707 51.3072H28.9402Z" fill="#222B60"/>
<path d="M61.4414 17.1244C60.8827 16.8733 60.2038 17.0326 59.8241 17.5404L59.5716 17.8781L59.3471 17.7137C58.757 17.2816 57.9246 17.4047 57.4879 17.9887L50.3718 27.5055C50.1535 27.7975 50.2157 28.2094 50.5107 28.4255L51.4403 29L41.5396 41.9935C41.4372 42.1304 41.3627 42.2857 41.3201 42.4507L40.2801 46.4831C40.2065 46.7687 40.5204 46.9986 40.7749 46.8454L44.3676 44.6822C44.5146 44.5937 44.6428 44.4778 44.7452 44.3409L63.0297 19.8878C63.3867 19.4104 63.3687 18.7728 63.0279 18.3199L61.4414 17.1244Z" fill="#D64500"/>
<path fill-rule="evenodd" clip-rule="evenodd" d="M66.3959 19L60.3359 28V61.94H86.1359V55.88H66.3959V19ZM126.942 35C124.722 23.84 115.002 19.7 106.962 19.7C95.3818 19.7 86.3218 28.58 86.3218 41C86.3218 53.36 95.2018 62.24 106.962 62.24C114.582 62.24 123.222 57.08 126.102 49.04V49.1C126.642 47.72 126.942 45.38 127.242 41.84H104.622V47.9H120.162C117.642 54.02 112.122 56.42 106.962 56.42C98.7418 56.42 92.3818 49.88 92.3818 41C92.3818 32.18 98.7418 25.76 106.962 25.76C112.302 25.76 118.782 28.22 120.462 35H126.942ZM164.121 51.8C166.821 49.04 168.561 45.26 168.561 40.94C168.561 36.62 166.821 32.84 164.121 30.08C161.301 27.26 157.401 25.52 153.261 25.52C149.121 25.52 145.281 27.26 142.521 30.08C139.761 32.84 138.021 36.68 138.021 40.94C138.021 45.2 139.761 49.04 142.521 51.8C145.281 54.62 149.121 56.36 153.261 56.36C157.401 56.36 161.301 54.62 164.121 51.8ZM138.141 56.12C134.361 52.22 131.901 46.88 131.901 40.94C131.901 35 134.361 29.66 138.141 25.76C141.981 21.86 147.381 19.4 153.261 19.4C159.201 19.4 164.541 21.86 168.441 25.76C172.221 29.66 174.681 35 174.681 40.94C174.681 46.88 172.221 52.22 168.441 56.12C164.541 60.08 159.201 62.48 153.261 62.48C147.381 62.48 141.981 60.08 138.141 56.12ZM208.772 30.56C207.692 22.88 200.972 19.52 194.492 19.52C189.632 19.52 184.592 21.44 181.772 25.1C179.972 27.44 179.252 30.26 179.492 33.08V33.02C180.152 41.78 187.832 43.22 194.372 43.88C198.572 44.3 202.892 44.84 203.612 48.02C203.732 48.56 203.792 49.04 203.792 49.46C203.792 53.78 198.872 56.3 194.372 56.3C190.472 56.3 185.732 54.26 185.312 50.36V50.6L185.252 49.7L179.132 49.82L179.192 50.96C179.972 58.46 187.832 62.3 194.312 62.3C201.872 62.3 209.912 57.62 209.912 49.52C209.912 48.68 209.792 47.66 209.612 46.76C207.992 40.04 200.852 38.54 195.092 37.82C190.592 37.4 185.852 36.86 185.552 32.54C185.432 31.1 185.732 29.72 186.572 28.64C188.252 26.48 191.372 25.52 194.192 25.46C197.852 25.4 201.932 27.02 202.772 30.8L208.772 30.56ZM256.363 19.7C264.403 19.7 274.123 23.84 276.343 35H269.863C268.183 28.22 261.703 25.76 256.363 25.76C248.143 25.76 241.783 32.18 241.783 41C241.783 49.88 248.143 56.42 256.363 56.42C261.523 56.42 267.043 54.02 269.563 47.9H254.023V41.84H276.643C276.343 45.38 276.043 47.72 275.503 49.1V49.04C272.623 57.08 263.983 62.24 256.363 62.24C244.603 62.24 235.723 53.36 235.723 41C235.723 28.58 244.783 19.7 256.363 19.7ZM288.442 61.94V32.6L308.722 61.94H313.522V19.94H307.522V49.52L287.062 19.94L282.382 19.88V61.94H288.442ZM344.958 44H325.938V55.88H345.438V61.94H319.818V20H345.378V26.06H325.938V37.88H344.958V44ZM358.807 43.52L374.107 61.94H381.967L368.707 46.16C375.907 44.9 379.567 39.26 379.567 33.32C379.567 26.66 375.007 19.94 365.887 19.94H350.587V61.94H356.587V26.06H365.887C370.987 26.06 373.507 29.72 373.507 33.32C373.507 36.98 370.987 40.64 365.887 40.64H358.807V43.52ZM234 19.94H215V26H219H221.495H221.574H226H227.505H234V19.94ZM223.561 28L227.505 31.9699V55.8713H234V61.94H215V55.8713H221.495V28H223.561Z" fill="#222B60"/>
</svg>
